<svg id="Capa_1" data-name="Capa 1" xmlns="http://www.w3.org/2000/svg" viewBox="0 0 310 310"><defs><style>.cls-1{fill:#424242;}.cls-2{isolation:isolate;}.cls-3{fill:#eee;}</style></defs><title>asesoramiento</title><circle class="cls-1" cx="155" cy="155" r="155"/><g class="cls-2"><path class="cls-3" d="M200.24,197.78a7.12,7.12,0,0,1-7,7.18H122.78a7.12,7.12,0,0,1-7-7.18v-12H75.84a7.12,7.12,0,0,1-7-7.18V78a7.12,7.12,0,0,1,7-7.19h79.8a7.12,7.12,0,0,1,7,7.19v24.55a14.26,14.26,0,0,1,2.64,2.1l29.93,30.54a20,20,0,0,1,5,12.27v50.3Zm-56.33-115a2.44,2.44,0,0,0-2.35-2.4H89.92a2.44,2.44,0,0,0-2.35,2.4V87.6A2.44,2.44,0,0,0,89.92,90h51.64a2.44,2.44,0,0,0,2.35-2.4V82.81Zm46.94,112.57v-47.9H160.34a7.12,7.12,0,0,1-7-7.19V109.16H125.13v86.22h65.72Zm-6.24-57.48-21.93-22.38V137.9h21.93Z"/></g><g class="cls-2"><path class="cls-3" d="M245.5,239.21a12.7,12.7,0,0,1-12.43,13H191.63a12.7,12.7,0,0,1-12.43-13V196a12.7,12.7,0,0,1,12.43-13h41.44a12.7,12.7,0,0,1,12.43,13v43.17Zm-10.23-31.07a2.93,2.93,0,0,0,0-4l-4.4-4.59a2.66,2.66,0,0,0-3.88,0l-20.16,21L197.72,211a2.66,2.66,0,0,0-3.88,0l-4.4,4.59a2.93,2.93,0,0,0,0,4l15.45,16.1a2.66,2.66,0,0,0,3.88,0Z"/></g></svg>