<svg id="Capa_1" data-name="Capa 1" xmlns="http://www.w3.org/2000/svg" viewBox="0 0 3922.5 1158.88"><defs><style>.cls-1{fill:#093;}.cls-2{fill:#f93;}.cls-3{fill:#c33;}.cls-4{isolation:isolate;}.cls-5{fill:#fafafa;}</style></defs><title>camex_logo_blanco</title><path class="cls-1" d="M2389.8,905.9s629.5-333.4,1269.1,27c0,0-706.4-176.8-1096.4,118.7Z" transform="translate(-50)"/><polygon class="cls-2" points="3922.5 256.6 3130.5 255.1 3019.5 414.1 2963 249 2703 351 2767 551 2532.1 831.2 2860.5 831.2 2979 683.1 3016.5 831.2 3361.5 831.2 3227 555.1 3922.5 256.6"/><circle class="cls-3" cx="3052.2" cy="115.2" r="115.2"/><g class="cls-4"><g class="cls-4"><path class="cls-5" d="M502,801q-9.37,6.7-55.64,21.36A318.43,318.43,0,0,1,349.86,837q-137.39,0-218.62-59.83T50,597.64V577.36q0-108.49,79.77-173.92T345.42,338q53.67,0,97,11.45T502,374v84q-21.16-16.1-56.34-27t-76.53-11q-71.86,0-110,43.34T221,582.17v8.7q0,84.61,31,119.88T351.91,746a341.14,341.14,0,0,0,90-11.92q43.8-11.93,60-24.08v91Z" transform="translate(-50)"/></g><g class="cls-4"><path class="cls-5" d="M1061.48,827H914.42l-2.94-61.91Q893.25,794.91,850.36,814T750.28,833q-94.17,0-142.48-39.75t-48.31-120.5v-8.28q0-79.92,64.58-123.19T797.58,498a267.31,267.31,0,0,1,65.08,8q32,8,46.83,20V478.84q0-24.61-26.61-41.73T807.51,420q-52.22,0-93.11,9.75T643.48,454V373q38.88-13.12,86.89-22.56T846.83,341q109.78,0,162.22,41.61t52.44,133.08V827Zm-151-159.3v-12.8q0-42.91-24.19-65.41T814.73,567q-44.44,0-70.34,21.27t-25.91,67.47v12.8q0,48.28,27.39,64.38T815.72,749q36.52,0,65.64-19.59T910.48,667.7Z" transform="translate(-50)"/><path class="cls-5" d="M1983.08,827h-157V492.92q0-19.45-21-35.19T1755.38,442q-38.09,0-64.53,14.5T1648.08,493V827h-157V492.92q0-20.27-19-35.59T1419.39,442q-38.09,0-63.55,11.81t-42.77,30.86V827h-157V350h151.09l3,75.88Q1335.25,387,1381.55,364t112.33-23q59.11,0,93.86,23.81t51,65.63q30-51.75,76.36-69.77T1822,341q69.94-2,115.52,40.44t45.58,109V827Z" transform="translate(-50)"/><path class="cls-5" d="M2592.49,614h-385q0,79.17,42.88,110.08T2361.75,755a462.19,462.19,0,0,0,92.91-9.75A609.45,609.45,0,0,0,2552.49,716v80q-43.41,20.3-95.92,30.66T2335.5,837q-131.2,0-209.11-58.59t-77.91-171.23v-34q0-98.55,71.2-166.89T2326.39,338q129.09,0,197.59,64.23t68.5,167.42V614Zm-146-68q-4.92-70.24-36.72-100.62t-83-30.37q-44.86,0-80.08,30t-38.19,101h238Z" transform="translate(-50)"/></g></g><g class="cls-4"><g class="cls-4"><path class="cls-5" d="M123.35,1116.75q-32.16,0-51.34-22.5t-19.18-60.88Q52.83,995,72,972.48T123.35,950q24.71,0,42.08,14.19t19.54,37.4H164.29q-1.24-15.29-12.46-24.31t-28.28-9q-23.06,0-36.5,16.88t-13.44,48.24q0,31.24,13.34,48.18t36.19,16.94q17.78,0,28.75-9.24t12.41-26.4H185q-2.17,25.74-19,39.82T123.35,1116.75Z" transform="translate(-50)"/><path class="cls-5" d="M277.78,1102q-14.89,14.74-38.36,14.74-16.34,0-26.88-9.41T202,1083.09q0-40.92,66.28-40.92h9.51q0-12.54-1.24-18.21t-6.93-9.41q-5.69-3.74-18.1-3.74-26.06,0-26.88,19.8H205.19q2.17-36,47.36-36,21.09,0,32.88,8.91t11.79,35V1114H277.78v-12Zm0-18.7v-25.85H264.44q-42.4,0-42.39,24.53,0,8.91,6.2,13.69t16.75,4.79a40.26,40.26,0,0,0,18.61-4.62A36.36,36.36,0,0,0,277.78,1083.31ZM279.33,950L256.48,980.9h-15.3L254.93,950h24.4Z" transform="translate(-50)"/><path class="cls-5" d="M472.44,1114H452.9v-75.46q0-14.52-3.93-20.68t-13.13-6.16q-14.17,0-27.81,18.7V1114H388.58v-75.46q0-14.52-3.93-20.68t-13.24-6.16q-14.17,0-27.71,18.7V1114H324.16V997.29H343.7v14.85q13.86-17.49,30.71-17.49,24.09,0,30.71,21.12,11-13.75,18.61-17.43a34.4,34.4,0,0,1,15-3.68q33.71,0,33.71,43V1114Z" transform="translate(-50)"/><path class="cls-5" d="M568.14,1102q-14.89,14.74-38.36,14.74-16.34,0-26.88-9.41t-10.55-24.25q0-40.92,66.28-40.92h9.51q0-12.54-1.24-18.21t-6.93-9.41q-5.69-3.74-18.1-3.74-26.06,0-26.88,19.8H495.55q2.17-36,47.36-36,21.09,0,32.88,8.91t11.79,35V1114H568.14v-12Zm0-18.7v-25.85H554.8q-42.4,0-42.39,24.53,0,8.91,6.2,13.69t16.75,4.79a40.26,40.26,0,0,0,18.61-4.62A36.36,36.36,0,0,0,568.14,1083.31Z" transform="translate(-50)"/><path class="cls-5" d="M671.5,1016.21q-4.14-1.32-11.89-1.32-14.89,0-25.54,16.61V1114H614.52V997.29h19.54v16.28q12.3-18.92,28.54-18.92a49.11,49.11,0,0,1,8.89.88v20.68Z" transform="translate(-50)"/><path class="cls-5" d="M752.62,1102q-14.89,14.74-38.36,14.74-16.34,0-26.88-9.41t-10.55-24.25q0-40.92,66.28-40.92h9.51q0-12.54-1.24-18.21t-6.93-9.41q-5.69-3.74-18.1-3.74-26.06,0-26.88,19.8H680q2.17-36,47.36-36,21.09,0,32.88,8.91t11.79,35V1114H752.62v-12Zm0-18.7v-25.85H739.28q-42.4,0-42.39,24.53,0,8.91,6.2,13.69t16.75,4.79a40.26,40.26,0,0,0,18.61-4.62A36.36,36.36,0,0,0,752.62,1083.31Z" transform="translate(-50)"/></g><g class="cls-4"><path class="cls-5" d="M914.2,1100q-13,16.72-31.33,16.72-21.51,0-33.29-16.28t-11.79-43.89q0-28.6,13.18-45.26t33.14-16.67q17.78,0,30.09,11.66V952.74h19.44V1114H914.2v-14Zm0-19.58V1025q-12.62-14.19-28.85-14.19-12.51,0-20,11.5t-7.5,34.26q0,21.56,7.08,32.72t19.59,11.17Q900.86,1100.47,914.2,1080.45Z" transform="translate(-50)"/><path class="cls-5" d="M1007.21,1116.75q-24.2,0-38.88-16.12t-14.68-44.93q0-28.6,14.22-44.83T1005,994.65q23.47,0,37.48,15.95t14,45.1v5H973.92q1.24,20.24,10.49,30a30.13,30.13,0,0,0,22.8,9.79,32.21,32.21,0,0,0,18.46-5.55,18.93,18.93,0,0,0,8.63-15.79h20.16q-2.28,18-15.36,27.83T1007.21,1116.75Zm28.74-72.38q-2.38-16.83-10.65-25.19a28.56,28.56,0,0,0-40.33-.05q-8.38,8.31-10.65,25.25H1036Z" transform="translate(-50)"/></g><g class="cls-4"><path class="cls-5" d="M1225.39,1114h-113V952.74h109.5v19.14h-89.44v49.28h83.65v19.14h-83.65v54.56h93V1114Z" transform="translate(-50)"/><path class="cls-5" d="M1337.28,1114h-24.2l-27.3-45.54-27.3,45.54h-24.2l40.53-60.61-37.33-56.1h24.2l24.09,40.81,24.09-40.81h24.2l-37.33,55.88Z" transform="translate(-50)"/><path class="cls-5" d="M1368.84,1011.26q13-16.61,31.33-16.61,21.51,0,33.29,16.22t11.79,43.83q0,28.71-13.18,45.38t-33.24,16.67q-17.79,0-30-11.77v53.9h-19.54V997.29h19.54v14Zm0,75q12.51,14.19,28.75,14.19,12.61,0,20.06-11.5t7.45-34.26q0-21.56-7-32.72t-19.65-11.17q-16.23,0-29.57,20v55.44Z" transform="translate(-50)"/><path class="cls-5" d="M1507.72,994.65q23.47,0,37.48,15.95t14,45.1q0,29-14,45t-37.48,16q-23.37,0-37.38-16t-14-45q0-29.15,14-45.1T1507.72,994.65Zm0,105.82q14,0,22.64-11.27t8.69-33.5q0-22.33-8.69-33.61t-22.64-11.27q-14,0-22.64,11.27t-8.69,33.61q0,22.22,8.69,33.5T1507.72,1100.47Z" transform="translate(-50)"/><path class="cls-5" d="M1634.19,1016.21q-4.14-1.32-11.89-1.32-14.89,0-25.54,16.61V1114h-19.54V997.29h19.54v16.28q12.3-18.92,28.54-18.92a49.1,49.1,0,0,1,8.89.88v20.68Z" transform="translate(-50)"/><path class="cls-5" d="M1686.52,1114.22a69.28,69.28,0,0,1-14,1.32q-12,0-17.58-4.57a19.26,19.26,0,0,1-6.93-11.71,110.49,110.49,0,0,1-1.34-19.47v-66.22h-13.54V997.29h13.54v-29h19.44v29h17.79v16.28h-17.79v67.32q0,12,2.84,15.24a9.84,9.84,0,0,0,7.81,3.25,52.13,52.13,0,0,0,9.72-.88v15.73Z" transform="translate(-50)"/><path class="cls-5" d="M1768.43,1102q-14.89,14.74-38.36,14.74-16.34,0-26.88-9.41t-10.55-24.25q0-40.92,66.28-40.92h9.51q0-12.54-1.24-18.21t-6.93-9.41q-5.69-3.74-18.09-3.74-26.06,0-26.88,19.8h-19.44q2.17-36,47.36-36,21.09,0,32.88,8.91t11.79,35V1114h-19.44v-12Zm0-18.7v-25.85h-13.34q-42.4,0-42.39,24.53,0,8.91,6.2,13.69t16.75,4.79a40.26,40.26,0,0,0,18.61-4.62A36.37,36.37,0,0,0,1768.43,1083.31Z" transform="translate(-50)"/><path class="cls-5" d="M1882.39,1100q-13,16.72-31.33,16.72-21.51,0-33.29-16.28T1806,1056.58q0-28.6,13.18-45.26t33.14-16.67q17.78,0,30.09,11.66V952.74h19.44V1114h-19.44v-14Zm0-19.58V1025q-12.62-14.19-28.85-14.19-12.51,0-20,11.5t-7.5,34.26q0,21.56,7.08,32.72t19.59,11.17Q1869.05,1100.47,1882.39,1080.45Z" transform="translate(-50)"/><path class="cls-5" d="M1971.33,994.65q23.47,0,37.48,15.95t14,45.1q0,29-14,45t-37.48,16q-23.37,0-37.38-16t-14-45q0-29.15,14-45.1T1971.33,994.65Zm0,105.82q14,0,22.64-11.27t8.69-33.5q0-22.33-8.69-33.61t-22.64-11.27q-14,0-22.64,11.27T1940,1055.7q0,22.22,8.69,33.5T1971.33,1100.47Z" transform="translate(-50)"/><path class="cls-5" d="M2097.8,1016.21q-4.14-1.32-11.89-1.32-14.89,0-25.54,16.61V1114h-19.54V997.29h19.54v16.28q12.3-18.92,28.54-18.92a49.1,49.1,0,0,1,8.89.88v20.68Z" transform="translate(-50)"/><path class="cls-5" d="M2154.17,1116.75q-24.19,0-38.88-16.12t-14.68-44.93q0-28.6,14.22-44.83T2152,994.65q23.47,0,37.48,15.95t14,45.1v5h-82.62q1.24,20.24,10.5,30a30.13,30.13,0,0,0,22.8,9.79,32.21,32.21,0,0,0,18.46-5.55,18.94,18.94,0,0,0,8.63-15.79h20.16q-2.27,18-15.35,27.83T2154.17,1116.75Zm28.75-72.38q-2.38-16.83-10.65-25.19a28.56,28.56,0,0,0-40.33-.05q-8.38,8.31-10.65,25.25h61.63Z" transform="translate(-50)"/><path class="cls-5" d="M2260.68,1116.75q-45,0-47-37.62h19.54q0.21,21.34,27.3,21.34,12.1,0,18.46-5.33a16.73,16.73,0,0,0,6.36-13.37q0-7.92-6.2-11.16t-25.59-8.42q-19.39-5.17-28.33-11.55t-8.94-22.44a30.28,30.28,0,0,1,11.12-24q11.11-9.51,29.73-9.51,43.12,0,44,32.67h-19.44q-1-16.5-23.27-16.5-9.82,0-16.29,4a12.74,12.74,0,0,0-6.46,11.55q0,6.82,5,9.84t24.87,8.14q19.9,5.11,29.57,11.93t9.67,23.54a33.73,33.73,0,0,1-11.94,26.46Q2280.85,1116.75,2260.68,1116.75Z" transform="translate(-50)"/></g></g></svg>