<svg id="Capa_1" data-name="Capa 1" xmlns="http://www.w3.org/2000/svg" viewBox="0 0 310 310"><defs><style>.cls-1{fill:#424242;}.cls-2{isolation:isolate;}.cls-3{fill:#eee;}</style></defs><title>capacitacion</title><circle class="cls-1" cx="155" cy="155" r="155"/><g class="cls-2"><path class="cls-3" d="M235.19,127l-79.95,29.56a3.08,3.08,0,0,1-1.43,0l-46.54-17.3c-4.07,3.78-6.92,13-7.5,24.35a10.92,10.92,0,0,1,4.5,9.15,11.27,11.27,0,0,1-4.14,9l4.14,36.36a3.1,3.1,0,0,1-.57,2.1,2.15,2.15,0,0,1-1.71.92H88.29a2.15,2.15,0,0,1-1.71-.92,3.1,3.1,0,0,1-.57-2.1l4.14-36.36a11.75,11.75,0,0,1,.5-18.31c0.43-9.82,2.57-20.4,7-27.71L73.87,127a2.94,2.94,0,0,1,0-5.21l79.95-29.56a3.08,3.08,0,0,1,1.43,0l79.95,29.56A2.94,2.94,0,0,1,235.19,127Zm-35,51.14c0.57,11.84-20.49,21.5-45.68,21.5s-46.25-9.66-45.68-21.5l1.28-26.53,41,15.2a10.28,10.28,0,0,0,6.85,0l41-15.2Z"/></g></svg>