<svg id="Capa_1" data-name="Capa 1" xmlns="http://www.w3.org/2000/svg" viewBox="0 0 310 310"><defs><style>.cls-1{fill:#424242;}.cls-2{isolation:isolate;}.cls-3{fill:#eee;}</style></defs><title>desarrollo-empresarial</title><circle class="cls-1" cx="155" cy="155" r="155"/><g class="cls-2"><path class="cls-3" d="M225.09,213.39H85.4V99.51h8.73V203.9h131v9.49Zm-8.73-69.77a2.16,2.16,0,0,1-3.75,1.63l-8.25-9-43.17,46.93a2.07,2.07,0,0,1-3.14,0l-15.89-17.28-28.37,30.84-13.1-14.24,39.9-43.37a2.06,2.06,0,0,1,3.14,0l15.89,17.28L191.26,122l-8.25-9a2.4,2.4,0,0,1,1.5-4.08h29.67a2.25,2.25,0,0,1,2.18,2.37v32.25Z"/></g></svg>