<svg id="Capa_1" data-name="Capa 1" xmlns="http://www.w3.org/2000/svg" viewBox="0 0 303.4 304.5"><defs><style>.cls-1{fill:#008a29;}.cls-2{fill:#c00027;}.cls-3{fill:#fda000;}</style></defs><title>icono_camex</title><path class="cls-1" d="M94.7,351.6a2,2,0,0,1-.9,1c-2.8,1.2-8.4-8.7-11.9-14.5-13.9-22.9-20.1-23-20.2-28.9-0.2-18.9,62.7-43.1,123.7-41.3a192.7,192.7,0,0,1,83.4,21.7c17.6,9.2,36.1,22.4,34.8,25.8S280.9,308.3,245,302c-24.7-4.4-47.3-8.1-73.3-1-22.5,6.1-39.1,18-49.5,26.9" transform="translate(-61.7 -48.2)"/><ellipse class="cls-2" cx="133.8" cy="33.4" rx="22.5" ry="33.4"/><polygon class="cls-3" points="115 70.7 124.7 110.5 146.7 69.8 303.4 69.8 164.5 155.6 187.9 236.8 127.4 236.8 115 198.1 95.8 236.8 36.7 236.8 79.3 154.9 66.9 93 115 70.7"/></svg>