<svg id="Capa_1" data-name="Capa 1" xmlns="http://www.w3.org/2000/svg" viewBox="0 0 580.7 269.8"><defs><style>.cls-1{font-size:239.21px;font-family:Paneuropa Highway;letter-spacing:-11.85px;}.cls-2{fill:#008a29;}.cls-3{fill:#c00027;}.cls-4{fill:#fda000;}.cls-5{font-size:43.06px;font-family:Microsoft Sans Serif;letter-spacing:-3.56px;}</style></defs><title>Logo_camex</title><text class="cls-1" transform="translate(0 191.7) scale(0.84 1)">came</text><path class="cls-2" d="M426.3,270.9a1.5,1.5,0,0,1-.7.8c-2.1.9-6.2-6.7-8.7-11.2-10.2-17.7-14.7-17.8-14.8-22.3-0.2-14.6,46-33.2,90.8-31.9A135.9,135.9,0,0,1,554.2,223c12.9,7.1,26.5,17.3,25.6,19.9s-16.7-5.5-43.1-10.4c-18.1-3.4-34.7-6.3-53.8-.8-16.5,4.7-28.7,13.9-36.3,20.7" transform="translate(-44.2 -22.6)"/><ellipse class="cls-3" cx="456.2" cy="39.9" rx="16.5" ry="25.8"/><polygon class="cls-4" points="442.4 68.7 449.5 99.6 465.6 68.4 580.7 68.4 478.7 134.7 495.9 197.4 451.5 197.4 442.4 167.5 428.3 197.4 384.9 197.4 416.2 133.9 407.1 86.1 442.4 68.7"/><text class="cls-5" transform="translate(20.5 258.7) scale(0.84 1)">Cámara de Exportadores</text></svg>