<svg id="Capa_1" data-name="Capa 1" xmlns="http://www.w3.org/2000/svg" viewBox="0 0 65.84 65.84"><defs><style>.cls-1{fill:#ff6e40;}.cls-2{fill:#fafafa;}</style></defs><title>mas-eventos</title><circle class="cls-1" cx="32.92" cy="32.92" r="32.92"/><path class="cls-2" d="M65.08,40.78v24a2.48,2.48,0,0,1-2.51,2.4H34.92a2.48,2.48,0,0,1-2.51-2.4v-24a2.48,2.48,0,0,1,2.51-2.4h2.51v-1.8a3.08,3.08,0,0,1,3.14-3h1.26a3.08,3.08,0,0,1,3.14,3v1.8h7.54v-1.8a3.08,3.08,0,0,1,3.14-3h1.26a3.08,3.08,0,0,1,3.14,3v1.8h2.51A2.48,2.48,0,0,1,65.08,40.78Zm-2.51,4.8H34.92V64.76H62.57V45.57ZM39.94,42a0.61,0.61,0,0,0,.63.6h1.26a0.61,0.61,0,0,0,.63-0.6v-5.4a0.61,0.61,0,0,0-.63-0.6H40.57a0.61,0.61,0,0,0-.63.6V42ZM54.4,54a0.61,0.61,0,0,1,.63.6v1.2a0.61,0.61,0,0,1-.63.6H50v4.2a0.61,0.61,0,0,1-.63.6H48.11a0.61,0.61,0,0,1-.63-0.6v-4.2h-4.4a0.61,0.61,0,0,1-.63-0.6v-1.2a0.61,0.61,0,0,1,.63-0.6h4.4v-4.2a0.61,0.61,0,0,1,.63-0.6h1.26a0.61,0.61,0,0,1,.63.6V54h4.4ZM55,42a0.61,0.61,0,0,0,.63.6h1.26a0.61,0.61,0,0,0,.63-0.6v-5.4a0.61,0.61,0,0,0-.63-0.6H55.66a0.61,0.61,0,0,0-.63.6V42Z" transform="translate(-17.08 -17.08)"/></svg>